<svg xmlns="http://www.w3.org/2000/svg" viewBox="0 0 128 128"><defs><style>.cls-1{fill:#fff;}</style></defs><g id="Layer_2" data-name="Layer 2"><g id="Layer_1-2" data-name="Layer 1"><path class="cls-1" d="M118,0H10A10,10,0,0,0,0,10V118a10,10,0,0,0,10,10H118a10,10,0,0,0,10-10V10A10,10,0,0,0,118,0ZM22.5,53.27a3,3,0,0,1,3-3H76.16a3,3,0,0,1,3,3v.07a3,3,0,0,1-3,3H25.5a3,3,0,0,1-3-3Zm56.66,33a3,3,0,0,1-3,3H25.5a3,3,0,0,1-3-3v-.07a3,3,0,0,1,3-3H76.16a3,3,0,0,1,3,3ZM108.5,70a3,3,0,0,1-3,3h-80a3,3,0,0,1-3-3V70a3,3,0,0,1,3-3h80a3,3,0,0,1,3,3Z"/></g></g></svg>