<svg xmlns="http://www.w3.org/2000/svg" viewBox="0 0 128.92 128"><defs><style>.cls-1{fill:#fff;}</style></defs><g id="Layer_2" data-name="Layer 2"><g id="Layer_1-2" data-name="Layer 1"><path class="cls-1" d="M16.11,42.51v43H26.86V74.74H37.6V85.49H48.34v-43ZM37.6,64H26.86V53.26H37.6Z"/><path class="cls-1" d="M69.83,42.51H59.09v43H69.83V74.74H91.32V42.51ZM80.57,64H69.83V53.26H80.57Z"/><rect class="cls-1" x="102.06" y="42.51" width="10.74" height="42.97"/><polygon class="cls-1" points="77.43 12.97 64.46 0 51.49 12.97 0 12.97 0 34.46 10.74 34.46 10.74 23.71 55.94 23.71 64.46 15.2 72.98 23.71 118.17 23.71 118.17 34.46 128.92 34.46 128.92 12.97 77.43 12.97"/><polygon class="cls-1" points="118.17 93.54 118.17 104.29 72.98 104.29 64.46 112.8 55.94 104.29 10.74 104.29 10.74 93.54 0 93.54 0 115.03 51.49 115.03 64.46 128 77.43 115.03 128.92 115.03 128.92 93.54 118.17 93.54"/></g></g></svg>