<svg xmlns="http://www.w3.org/2000/svg" viewBox="0 0 128 128"><defs><style>.cls-1{fill:#fff;}</style></defs><g id="Layer_2" data-name="Layer 2"><g id="Layer_1-2" data-name="Layer 1"><path class="cls-1" d="M58.2,60.5A5.11,5.11,0,0,0,56.5,59a5.72,5.72,0,0,0-5,0,4.79,4.79,0,0,0-1.66,1.5,6.32,6.32,0,0,0-.93,2.15,10.85,10.85,0,0,0-.28,2.51,12.07,12.07,0,0,0,.25,2.51,6.16,6.16,0,0,0,.87,2.13,4.46,4.46,0,0,0,1.65,1.48,5.47,5.47,0,0,0,2.58.55,5.25,5.25,0,0,0,2.46-.54,4.81,4.81,0,0,0,1.71-1.44,6.39,6.39,0,0,0,1-2.12,9.89,9.89,0,0,0,0-5A7,7,0,0,0,58.2,60.5Z"/><path class="cls-1" d="M118,0H10A10,10,0,0,0,0,10V118a10,10,0,0,0,10,10H118a10,10,0,0,0,10-10V10A10,10,0,0,0,118,0ZM45.25,72.39l-5-6.84-5.11,6.84H20.68V52.11H34.31v1.08H21.93v8.12H33.58v1.08H21.93v8.92H34.46v.17l5-6.76-5.34-6.93h1.51l4.57,6.11,4.6-6.11h1.39L41,64.72l5.77,7.67Zm14.91-4.2A6.87,6.87,0,0,1,59,70.59a5.62,5.62,0,0,1-2.05,1.57,7,7,0,0,1-2.92.57,6.55,6.55,0,0,1-3.25-.79,4.66,4.66,0,0,1-2.07-2.59H48.6v8.27H47.55V57.79H48.6v3.35h.06A5.27,5.27,0,0,1,49.23,60a4.73,4.73,0,0,1,1.05-1.21,5.76,5.76,0,0,1,1.58-.92A5.61,5.61,0,0,1,54,57.45a6.38,6.38,0,0,1,2.92.63A5.88,5.88,0,0,1,59,59.75a7.34,7.34,0,0,1,1.21,2.44,10.85,10.85,0,0,1,.4,2.93A11.35,11.35,0,0,1,60.16,68.19ZM67.05,59A4.66,4.66,0,0,0,65,60.21a8.29,8.29,0,0,0-.7.82,3.76,3.76,0,0,0-.49.88A5.28,5.28,0,0,0,63.45,63a10.48,10.48,0,0,0-.14,1.42v8H62.23V57.79h1.08V61h.09a3.47,3.47,0,0,1,.72-1.33,5,5,0,0,1,1.28-1.08,6.08,6.08,0,0,1,1.67-.7A6.82,6.82,0,0,1,69,57.71v1.08A5,5,0,0,0,67.05,59Zm14.11,6c0,.12,0,.22,0,.29H69.33v.17a9,9,0,0,0,.34,2.45,6.3,6.3,0,0,0,1,2,4.65,4.65,0,0,0,1.68,1.39,5.11,5.11,0,0,0,2.34.51,5,5,0,0,0,3.48-1.15A6.07,6.07,0,0,0,80,67.45H81A6.59,6.59,0,0,1,79,71.37a7.25,7.25,0,0,1-7.07.78,5.76,5.76,0,0,1-2-1.59,6.82,6.82,0,0,1-1.21-2.39,10.82,10.82,0,0,1-.4-3,10.13,10.13,0,0,1,.42-2.93,7.3,7.3,0,0,1,1.23-2.48,6,6,0,0,1,5-2.34,6.14,6.14,0,0,1,2.71.57,5.61,5.61,0,0,1,2,1.55,6.76,6.76,0,0,1,1.2,2.27,8.88,8.88,0,0,1,.42,2.77C81.18,64.7,81.17,64.81,81.16,64.94Zm12.17,5.72A4.12,4.12,0,0,1,92,71.89a5.79,5.79,0,0,1-1.83.66,11.22,11.22,0,0,1-2,.18,7.77,7.77,0,0,1-2.31-.33,5,5,0,0,1-1.86-1,4.68,4.68,0,0,1-1.25-1.63,5.6,5.6,0,0,1-.48-2.25h1.08a4.32,4.32,0,0,0,.45,1.81,4.34,4.34,0,0,0,2.53,2.17,5.77,5.77,0,0,0,1.84.28,10.33,10.33,0,0,0,1.52-.12,5.78,5.78,0,0,0,1.51-.47,3.23,3.23,0,0,0,1.15-1,2.56,2.56,0,0,0,.45-1.55,2.26,2.26,0,0,0-.74-1.85,5.14,5.14,0,0,0-1.85-1,18.29,18.29,0,0,0-2.42-.56,11.82,11.82,0,0,1-2.41-.64,4.83,4.83,0,0,1-1.86-1.2,3.78,3.78,0,0,1-.26-4.09,3.42,3.42,0,0,1,1.24-1.15,5.31,5.31,0,0,1,1.69-.61,9.13,9.13,0,0,1,1.87-.19,8.51,8.51,0,0,1,2.13.26,4.58,4.58,0,0,1,1.72.82A3.88,3.88,0,0,1,93,60a4.93,4.93,0,0,1,.42,2.13H92.37A4.08,4.08,0,0,0,92,60.4a3,3,0,0,0-.91-1.15,4,4,0,0,0-1.38-.65,6.6,6.6,0,0,0-1.7-.21,8.44,8.44,0,0,0-1.49.14,4.69,4.69,0,0,0-1.35.48,3.07,3.07,0,0,0-1,.88,2.53,2.53,0,0,0,0,2.73,3.16,3.16,0,0,0,1.12.87A8.26,8.26,0,0,0,87,64l1.74.4c.72.13,1.4.29,2,.47a5.44,5.44,0,0,1,1.65.74,3.22,3.22,0,0,1,1.09,1.2,3.91,3.91,0,0,1,.4,1.88A3.34,3.34,0,0,1,93.33,70.66Zm12.81,0a4.12,4.12,0,0,1-1.36,1.23,5.79,5.79,0,0,1-1.83.66,11.3,11.3,0,0,1-2,.18,7.77,7.77,0,0,1-2.31-.33,5,5,0,0,1-1.86-1,4.68,4.68,0,0,1-1.25-1.63,5.28,5.28,0,0,1-.48-2.25h1.07a4.47,4.47,0,0,0,.46,1.81,4.34,4.34,0,0,0,2.53,2.17,5.72,5.72,0,0,0,1.84.28,10.33,10.33,0,0,0,1.52-.12A5.78,5.78,0,0,0,104,71.2a3.32,3.32,0,0,0,1.15-1,2.56,2.56,0,0,0,.45-1.55,2.26,2.26,0,0,0-.74-1.85,5.11,5.11,0,0,0-1.86-1,18.14,18.14,0,0,0-2.41-.56,11.82,11.82,0,0,1-2.41-.64,4.94,4.94,0,0,1-1.87-1.2,3.23,3.23,0,0,1-.73-2.29,3.18,3.18,0,0,1,.48-1.8,3.47,3.47,0,0,1,1.23-1.15A5.49,5.49,0,0,1,99,57.64a9.23,9.23,0,0,1,1.88-.19,8.51,8.51,0,0,1,2.13.26,4.65,4.65,0,0,1,1.72.82A3.88,3.88,0,0,1,105.84,60a4.93,4.93,0,0,1,.42,2.13h-1.08a4.08,4.08,0,0,0-.33-1.71,3,3,0,0,0-.91-1.15,4,4,0,0,0-1.38-.65,6.65,6.65,0,0,0-1.7-.21,8.44,8.44,0,0,0-1.49.14A4.69,4.69,0,0,0,98,59a3,3,0,0,0-1,.88,2.18,2.18,0,0,0-.38,1.31,2.24,2.24,0,0,0,.42,1.42,3.07,3.07,0,0,0,1.12.87,8.26,8.26,0,0,0,1.57.52l1.74.4c.72.13,1.4.29,2,.47a5.44,5.44,0,0,1,1.65.74,3.31,3.31,0,0,1,1.09,1.2,3.91,3.91,0,0,1,.4,1.88A3.34,3.34,0,0,1,106.14,70.66Z"/><path class="cls-1" d="M78.66,60.16A5.08,5.08,0,0,0,77,58.87a4.82,4.82,0,0,0-2.18-.48,5,5,0,0,0-2.31.5,5.27,5.27,0,0,0-1.68,1.3,5.8,5.8,0,0,0-1.05,1.89,8.86,8.86,0,0,0-.46,2.22H80.07a8.69,8.69,0,0,0-.4-2.26A5.59,5.59,0,0,0,78.66,60.16Z"/></g></g></svg>