<svg xmlns="http://www.w3.org/2000/svg" viewBox="0 0 128 128"><defs><style>.cls-1{fill:#fff;}</style></defs><g id="Layer_2" data-name="Layer 2"><g id="Layer_1-2" data-name="Layer 1"><path class="cls-1" d="M118,0H10A10,10,0,0,0,0,10V118a10,10,0,0,0,10,10H118a10,10,0,0,0,10-10V10A10,10,0,0,0,118,0ZM77.16,105.76c-2.18.42-2.87-.92-2.87-2.07V91.89c0-4-1.4-6.63-3-8C80.92,82.87,91,79.23,91,62.71a16.6,16.6,0,0,0-4.43-11.54c.45-1.08,1.92-5.46-.42-11.38,0,0-3.61-1.15-11.82,4.41a40.69,40.69,0,0,0-21.53,0C44.57,38.64,41,39.79,41,39.79c-2.33,5.92-.86,10.3-.42,11.38a16.68,16.68,0,0,0-4.42,11.54c0,16.48,10,20.16,19.59,21.26A9.06,9.06,0,0,0,53,89.71c-2.46,1.1-8.68,3-12.52-3.57,0,0-2.27-4.13-6.59-4.43,0,0-4.2-.06-.29,2.61,0,0,2.82,1.32,4.77,6.29,0,0,2.49,7.68,14.45,5.08v8c0,1.14-.69,2.47-2.84,2.07a43,43,0,1,1,27.21,0Z"/></g></g></svg>