<svg xmlns="http://www.w3.org/2000/svg" viewBox="0 0 128 128"><defs><style>.cls-1{fill:#fff;}</style></defs><g id="Layer_2" data-name="Layer 2"><g id="Layer_1-2" data-name="Layer 1"><path class="cls-1" d="M118,0H10A10,10,0,0,0,0,10V118a10,10,0,0,0,10,10H118a10,10,0,0,0,10-10V10A10,10,0,0,0,118,0ZM68.39,100.08c0,12.46-7.31,18.13-18,18.13-9.62,0-15.21-5-18-11l9.79-5.92c1.89,3.35,3.61,6.18,7.73,6.18,4,0,6.45-1.55,6.45-7.56V59h12Zm28.44,18.13c-11.17,0-18.39-5.33-21.91-12.29h0l9.79-5.67c2.58,4.21,5.93,7.31,11.86,7.31,5,0,8.16-2.49,8.16-5.93,0-4.13-3.26-5.59-8.76-8l-3-1.29C84.29,88.65,78.53,84,78.53,74.22c0-9,6.87-15.9,17.61-15.9,7.65,0,13.15,2.67,17.1,9.63l-9.36,6c-2.07-3.69-4.3-5.15-7.74-5.15S90.39,71,90.39,74c0,3.61,2.23,5.07,7.38,7.31l3,1.28c10.23,4.39,16,8.85,16,18.91C116.76,112.28,108.26,118.21,96.83,118.21Z"/></g></g></svg>