<svg xmlns="http://www.w3.org/2000/svg" viewBox="0 0 201.07 128"><defs><style>.cls-1{fill:#fff;fill-rule:evenodd;}</style></defs><g id="Layer_2" data-name="Layer 2"><g id="Layer_1-2" data-name="Layer 1"><path class="cls-1" d="M99.46,4C97,6,84.36,16.54,83.35,38.08c-1,20.08,14.52,32.07,16.62,33.6,1.49,3.5,1.35,9.47,1.35,9.47l2.18.74s-.42-5.84.21-8.61A5.34,5.34,0,0,1,104.84,71a28.28,28.28,0,0,0,2.65-2.17l.11-.06v0c5.17-4.76,15-16.72,11.71-36.29-4.31-19-14.47-25.2-15.59-27.6A26.88,26.88,0,0,1,101.32.21V.35a2.26,2.26,0,0,0-.1-.35A5,5,0,0,1,99.46,4Z"/><path class="cls-1" d="M110.36,99.83h.22a2.43,2.43,0,0,0,1.9-.83,3.21,3.21,0,0,0,.56-2,2.33,2.33,0,0,0-.17-.86,3.75,3.75,0,0,1-3,1.12,8.06,8.06,0,0,1-2.81-.43,13.49,13.49,0,0,0-4.76-1h-.13a12.73,12.73,0,0,0-6.23,2.12,6.57,6.57,0,0,0-2.77,5.46c0,3.37,1.51,5.62,4.54,6.62a.27.27,0,0,1,.17.21.33.33,0,0,1-.08.26,18.17,18.17,0,0,1-2,1.3c-.48.3-.91.56-1.22.78s-.3.52-.26.78v.09a4.14,4.14,0,0,0,2.82,2.72.29.29,0,0,1,.17.22c0,.09,0,.13-.13.17a23.1,23.1,0,0,0-4,3.2,3.34,3.34,0,0,0-.87,2.17,5.72,5.72,0,0,0,2.3,4.28A9.54,9.54,0,0,0,100.8,128a13.79,13.79,0,0,0,5.75-1.26c3.81-1.86,6.1-4.84,6.1-8a4.85,4.85,0,0,0-3.24-4.64,38.32,38.32,0,0,0-7-.86c-.43,0-.82,0-1.21-.09C99.37,113,99,112.2,99,111.55s.86-1.16,1.21-1.25h0s.35,0,.57,0a4.7,4.7,0,0,1,.6-.05,10,10,0,0,0,5.07-1.94,7,7,0,0,0,2.94-6.28,15.32,15.32,0,0,0-.26-1.86l0-.09c0-.13-.09-.21,0-.3l.18-.09A9,9,0,0,0,110.36,99.83Zm-9.87,16.92a17.47,17.47,0,0,1,6.06.78,3.29,3.29,0,0,1,2.51,3.33c0,2.34-2,4.72-6.36,4.72A7.63,7.63,0,0,1,97.51,124,3.82,3.82,0,0,1,96,120.86c0-1.34.83-2.47,2.64-3.64A3.82,3.82,0,0,1,100.49,116.75Zm3.64-9.39a3.39,3.39,0,0,1-2.25.86c-3.55,0-4.81-3.24-4.81-6.06s1.43-4.54,3.73-4.54h0c2.94,0,4.71,2.16,4.71,5.76A5.75,5.75,0,0,1,104.13,107.36Z"/><path class="cls-1" d="M126.24,116.36a12,12,0,0,0,5.93-1.86c3-1.91,4.55-5,4.55-9,0-5.8-3.94-9.82-9.57-9.82a13.09,13.09,0,0,0-6.62,1.94,9.37,9.37,0,0,0-4.28,8.23C116.25,111,118.89,116.36,126.24,116.36Zm-3.11-17.88a4,4,0,0,1,2.33-.64h0c4.12,0,6.93,3.76,6.93,9.39,0,2.9-.65,5-1.91,6a4.4,4.4,0,0,1-3,1c-4.07,0-6.93-4-6.93-9.65C120.57,101.6,121.44,99.52,123.13,98.48Z"/><path class="cls-1" d="M55.83,114.5c3-1.91,4.55-5,4.55-9,0-5.8-3.94-9.82-9.57-9.82a13.06,13.06,0,0,0-6.62,1.94,9.37,9.37,0,0,0-4.28,8.23c0,5.06,2.64,10.47,10,10.47A11.72,11.72,0,0,0,55.83,114.5Zm-11.6-9.87c0-3,.87-5.11,2.56-6.15a4,4,0,0,1,2.33-.64c4.16,0,6.93,3.76,6.93,9.39,0,2.9-.65,5-1.91,6a4.4,4.4,0,0,1-3,1C47.09,114.28,44.23,110.3,44.23,104.63Z"/><path class="cls-1" d="M7.66,96.49a1.13,1.13,0,0,0-.21-.69A31.58,31.58,0,0,1,.83,97.49c-.57.09-.83.39-.83.65s.22.48.61.6a10.23,10.23,0,0,1,2.6,1.13,1.32,1.32,0,0,1,.47,1.21v.09c0,3.42,0,8.35-.08,11-.05,1.08-.39,1.55-1.26,1.77a15.66,15.66,0,0,1-1.9.39,1.37,1.37,0,0,0-.13.65,1.77,1.77,0,0,0,.13,1A11.34,11.34,0,0,1,2,116c.86,0,2-.08,3.46-.08,1.3,0,2.47,0,3.38.08.6,0,1.12,0,1.55,0a3.52,3.52,0,0,0,.13-1.65l-.77-.13a9.07,9.07,0,0,1-1-.17,1.33,1.33,0,0,1-1.21-1.34c0-1.69,0-5.59,0-8.7v-2.56a1.41,1.41,0,0,1,.39-1,8,8,0,0,1,4.42-1.69c2.29,0,3.72,1.26,4.24,3.77a75.61,75.61,0,0,1,0,9.91c0,.95-.3,1.34-1,1.55-.43.09-.86.18-1.38.26a3.21,3.21,0,0,0-.61.09,1.43,1.43,0,0,0-.17.78,2.4,2.4,0,0,0,.13.87c.43,0,1.17,0,1.95,0,.95,0,2.08,0,2.72,0,2.21,0,3.73,0,5.2.09a.9.9,0,0,0,.17-.44,2.28,2.28,0,0,0,0-1.21l-1.38-.3c-.22,0-.39-.09-.65-.13a1.27,1.27,0,0,1-1-1.34c0-1.39,0-3.21,0-5.15v-2.82a20.19,20.19,0,0,0-.17-3.54v0a.74.74,0,0,1,.17-.43A7.65,7.65,0,0,1,25,99a4.27,4.27,0,0,1,4.41,3.77c.26,1.68.09,8.69.09,9.52-.05,1.12-.26,1.51-1.13,1.77a13.43,13.43,0,0,1-1.64.39,4.16,4.16,0,0,0,0,1.65c1.34-.09,2.72-.13,5.41-.13,1.09,0,2.19,0,3.29.08a9.13,9.13,0,0,0,1.08,0,3.63,3.63,0,0,0,.26-1.65h0a8.91,8.91,0,0,1-2.51-.61,1.36,1.36,0,0,1-.78-1c0-1,.05-2.38.05-3.9,0-1.69,0-3.55,0-5,0-5.06-2.38-8-6.4-8-1.69,0-4.24,1.16-6.8,3.11a.29.29,0,0,1-.26.13.32.32,0,0,1-.3-.17,5.6,5.6,0,0,0-5-3.07c-1.3,0-3.81.77-6.58,2.94a.65.65,0,0,1-.26.08.34.34,0,0,1-.35-.3c0-.56,0-1.12.09-1.6Z"/><path class="cls-1" d="M72.06,95.59a29,29,0,0,1-6.71,1.73c-1,.21-1.3,1.21-.21,1.55h0A9.57,9.57,0,0,1,67.73,100a1.33,1.33,0,0,1,.39,1.21c0,3.25,0,8.22-.08,11-.05,1.08-.35,1.47-1.13,1.64l.09,0a17.91,17.91,0,0,1-1.82.35,2.53,2.53,0,0,0,0,2c.48,0,3-.13,5.06-.13,2.86,0,4.33.13,5.07.13a2.8,2.8,0,0,0,.21-2,8,8,0,0,1-2-.31c-.78-.17-1-.56-1-1.47-.08-2.29-.08-7.14-.08-10.43a2.1,2.1,0,0,1,.52-1.6,6.55,6.55,0,0,1,4-1.47,4.45,4.45,0,0,1,3,1,4.25,4.25,0,0,1,1.38,2.72c.22,1.86.13,5.54.13,8.74,0,1.74-.13,2.17-.78,2.38a7.88,7.88,0,0,1-2,.39,2.58,2.58,0,0,0,0,2c1.26,0,2.73-.13,4.89-.13,2.69,0,4.42.13,5.11.13a3,3,0,0,0,.13-1.86,8.76,8.76,0,0,1-2.81-.73,1.33,1.33,0,0,1-.35-.7c-.09-1.51-.09-5.84-.09-8.74a10.25,10.25,0,0,0-1.38-5.8,5.92,5.92,0,0,0-5-2.59c-1.91,0-4.46,1.29-6.58,3.11,0,0-.39.35-.35-.13s.09-1.43.13-2.08A1.09,1.09,0,0,0,72.06,95.59Z"/><path class="cls-1" d="M194.23,98.79c-.13-.05-.13-.13,0-.17,2.55-1.09,4.5-3.29,4.5-6.06,0-5.63-5.19-7-9-7-3.07,0-5.58.09-8.74.09-3.33,0-4.63-.13-5.06-.13h0c-.26.17-1,1.64-.78,1.86,1,.13,2.21.3,2.94.43,1,.26,1.43.69,1.47,2,.05,1.73,0,5.28,0,10.52,0,3.81,0,9.17-.08,10.69-.18,1.77-.31,2.12-1.47,2.42a8.39,8.39,0,0,1-2.21.35c-.3.26-1,1.82-.61,2,3.29-.09,9.22.17,11.43.17a20.82,20.82,0,0,0,8.05-1.34c3.76-1.65,6.36-4.29,6.36-8.44S197.87,99.7,194.23,98.79ZM184.36,88.7c0-.26.22-.73.44-.77a7.06,7.06,0,0,1,1.81-.09c4.38,0,7.32,1.6,7.32,5.8A4.61,4.61,0,0,1,191.64,98a9.33,9.33,0,0,1-3.55.51c-1.35,0-2.9,0-3.55-.08a.32.32,0,0,1-.26-.26C184.28,95,184.32,90.44,184.36,88.7Zm5.2,24.93a9.8,9.8,0,0,1-3.77-.52,3.28,3.28,0,0,1-1.43-2.33c-.13-1.91-.08-6.8-.08-9.87,0-.13.17-.22.3-.26a24,24,0,0,1,2.51,0c5.71,0,8.87,2.38,8.87,6.66C196,111.73,193,113.63,189.56,113.63Z"/><path class="cls-1" d="M143.9,113.5a6.76,6.76,0,0,1-2,.39c-.35,0-.91,1.56-.69,2h0c4.2,0,9.26.13,12.2.13,5.54,0,9.44-1.3,12.42-3.51s6-5.93,6-12.46a14,14,0,0,0-4.81-11.08c-2.59-2.21-6.23-3.37-10.56-3.37-5.15,0-7.09.13-9.82.13-1.51,0-4.67-.13-5.5-.13h0c-.21.25-1,1.6-.82,1.9,1.21.13,2.08.3,2.73.43,1.3.26,1.95.65,2.08,2.17.08,1.81,0,7.48,0,10.38,0,4.07,0,7.66-.09,10.65C145,112.68,144.81,113.16,143.9,113.5Zm6.15-24.84a1.26,1.26,0,0,1,.43-.69,6.46,6.46,0,0,1,2.42-.3,15.36,15.36,0,0,1,8.14,1.9c3.81,2.34,5.67,6.32,5.67,11.21,0,5.11-1.6,8.31-3.9,10.38a9.56,9.56,0,0,1-6.92,2.47c-1.82,0-3.85-.34-4.89-1.17h0a2.66,2.66,0,0,1-.95-2.07c-.09-.65-.09-6.28-.09-10.3S150,89.53,150.05,88.66Z"/></g></g></svg>