<svg xmlns="http://www.w3.org/2000/svg" viewBox="0 0 113.51 128"><defs><style>.cls-1{fill:#fff;}</style></defs><g id="Layer_2" data-name="Layer 2"><g id="Layer_1-2" data-name="Layer 1"><path class="cls-1" d="M56.75,128a9.81,9.81,0,0,1-4.92-1.32l-15.67-9.26c-2.33-1.31-1.19-1.77-.42-2a31,31,0,0,0,7.08-3.22,1.18,1.18,0,0,1,1.16.09l12,7.14a1.55,1.55,0,0,0,1.45,0l46.91-27.08a1.47,1.47,0,0,0,.71-1.26V36.91a1.51,1.51,0,0,0-.73-1.29l-46.88-27a1.5,1.5,0,0,0-1.45,0L9.16,35.63a1.5,1.5,0,0,0-.75,1.28V91.05a1.45,1.45,0,0,0,.74,1.25L22,99.72c7,3.49,11.24-.62,11.24-4.74V41.53a1.36,1.36,0,0,1,1.37-1.35h5.94a1.35,1.35,0,0,1,1.36,1.35V95c0,9.3-5.06,14.64-13.89,14.64-2.71,0-4.84,0-10.8-2.94L4.92,99.6A9.89,9.89,0,0,1,0,91.05V36.91a9.89,9.89,0,0,1,4.92-8.55L51.83,1.26a10.26,10.26,0,0,1,9.85,0l46.91,27.1a9.93,9.93,0,0,1,4.92,8.55V91.05a9.94,9.94,0,0,1-4.92,8.55L61.68,126.68A9.82,9.82,0,0,1,56.75,128Z"/><path class="cls-1" d="M71.23,90.71c-20.52,0-24.82-9.43-24.82-17.33A1.34,1.34,0,0,1,47.76,72h6.07a1.37,1.37,0,0,1,1.35,1.15c.91,6.17,3.64,9.29,16.05,9.29,9.89,0,14.09-2.24,14.09-7.48,0-3-1.19-5.27-16.55-6.77C55.94,67,48,64.12,48,53.85c0-9.47,8-15.11,21.35-15.11,15,0,22.46,5.21,23.41,16.41a1.36,1.36,0,0,1-1.35,1.47H85.32A1.36,1.36,0,0,1,84,55.56C82.54,49.07,79,47,69.35,47c-10.78,0-12,3.76-12,6.57,0,3.42,1.48,4.41,16,6.34,14.41,1.9,21.26,4.6,21.26,14.73S86.1,90.71,71.23,90.71Z"/></g></g></svg>