<svg xmlns="http://www.w3.org/2000/svg" viewBox="0 0 128 128"><defs><style>.cls-1{fill:#fff;}</style></defs><g id="Layer_2" data-name="Layer 2"><g id="Layer_1-2" data-name="Layer 1"><path class="cls-1" d="M118,0H10A10,10,0,0,0,0,10V118a10,10,0,0,0,10,10H118a10,10,0,0,0,10-10V10A10,10,0,0,0,118,0ZM100.6,95H27.4A6.39,6.39,0,0,1,21,88.6V63.09a6.4,6.4,0,0,1,1.68-4.32l7.32-8a6.41,6.41,0,0,1,9.24-.2l7.95,8a6.4,6.4,0,0,0,9.05,0L77,37.79a6.4,6.4,0,0,1,9,0l19.1,19.09A6.4,6.4,0,0,1,107,61.41V88.6A6.39,6.39,0,0,1,100.6,95Z"/></g></g></svg>