<svg xmlns="http://www.w3.org/2000/svg" viewBox="0 0 128 128"><defs><style>.cls-1{fill:#fff;}</style></defs><g id="Layer_2" data-name="Layer 2"><g id="Layer_1-2" data-name="Layer 1"><polygon class="cls-1" points="31 40.74 63.5 53.74 96 40.74 63.5 27.74 31 40.74"/><path class="cls-1" d="M63.94,59.22a1.21,1.21,0,0,1-.88,0l-10-4L31,64.06l32.5,13,32.5-13L73.91,55.23Z"/><path class="cls-1" d="M63.94,82.25a1.21,1.21,0,0,1-.88,0l-10-4L31,87.09l32.5,13,32.5-13L73.91,78.26Z"/><path class="cls-1" d="M118,0H10A10,10,0,0,0,0,10V118a10,10,0,0,0,10,10H118a10,10,0,0,0,10-10V10A10,10,0,0,0,118,0ZM104.65,62.51a1.37,1.37,0,0,1,.85,1.26,1.35,1.35,0,0,1-.85,1.26L79,75.29l25.65,10.26a1.32,1.32,0,0,1,.75.75,1.35,1.35,0,0,1-.75,1.76L64,104.32a1.33,1.33,0,0,1-1,0L22.35,88.06a1.32,1.32,0,0,1-.75-.75,1.35,1.35,0,0,1,.75-1.76L48,75.29,22.35,65a1.35,1.35,0,0,1-.75-.75,1.36,1.36,0,0,1,.75-1.77L48,52.26,22.35,42a1.34,1.34,0,0,1-.75-.76,1.36,1.36,0,0,1,.75-1.76L63,23.23a1.33,1.33,0,0,1,1,0l40.65,16.25a1.34,1.34,0,0,1,.75.76,1.36,1.36,0,0,1-.75,1.76L79,52.26Z"/></g></g></svg>