<svg xmlns="http://www.w3.org/2000/svg" viewBox="0 0 143.86 128"><defs><style>.cls-1{fill:#fff;}</style></defs><g id="Layer_2" data-name="Layer 2"><g id="Layer_1-2" data-name="Layer 1"><path class="cls-1" d="M71.93,51.18A12.82,12.82,0,1,0,84.75,64,12.82,12.82,0,0,0,71.93,51.18ZM36,89.5l-2.83-.72C12.1,83.45,0,74.41,0,64S12.1,44.49,33.18,39.16L36,38.45l.8,2.8A141.38,141.38,0,0,0,45,62.7L45.59,64,45,65.26A139.18,139.18,0,0,0,36.81,86.7ZM31.87,45.71C15.84,50.22,6,57.1,6,64s9.83,13.75,25.86,18.26A149.86,149.86,0,0,1,39,64,148.61,148.61,0,0,1,31.87,45.71Zm76,43.79-.8-2.81a140.22,140.22,0,0,0-8.17-21.44L98.27,64l.61-1.27a140.73,140.73,0,0,0,8.17-21.45l.8-2.81,2.84.72c21.08,5.33,33.17,14.37,33.17,24.81s-12.09,19.48-33.17,24.81ZM104.91,64A149.77,149.77,0,0,1,112,82.23c16-4.51,25.87-11.39,25.87-18.26S128,50.22,112,45.71A148.55,148.55,0,0,1,104.91,64ZM31.83,45.68,31,42.89C25.1,22,26.9,7,36,1.79c8.89-5.13,23.16.93,38.11,16.28l2,2.09-2,2.09A141.37,141.37,0,0,0,59.57,40l-.81,1.15-1.41.12A142.66,142.66,0,0,0,34.66,45ZM43.2,5.94A8.37,8.37,0,0,0,39,7c-6,3.43-7,15.37-2.91,31.49a151,151,0,0,1,19.38-3,149.94,149.94,0,0,1,12.3-15.25C58.39,11.11,49.54,5.94,43.2,5.94ZM100.67,128h0c-8.54,0-19.51-6.43-30.89-18.12l-2-2.09,2-2.1A140,140,0,0,0,84.29,87.9l.81-1.15,1.4-.12A141.45,141.45,0,0,0,109.2,83l2.83-.72.81,2.81c5.91,20.88,4.12,35.86-4.94,41.08A14.29,14.29,0,0,1,100.67,128ZM76.12,107.73C85.47,116.84,94.33,122,100.67,122h0a8.3,8.3,0,0,0,4.22-1c6-3.44,7-15.38,2.91-31.5a149.27,149.27,0,0,1-19.38,3A148.85,148.85,0,0,1,76.12,107.73Zm35.91-62L109.2,45a141.47,141.47,0,0,0-22.7-3.66l-1.4-.12L84.29,40A140,140,0,0,0,69.78,22.25l-2-2.09,2-2.09C84.73,2.72,99-3.34,107.9,1.79,117,7,118.76,22,112.84,42.88ZM88.42,35.46a149.92,149.92,0,0,1,19.38,3c4.11-16.12,3-28.06-2.91-31.49s-17,1.82-28.77,13.23A149.94,149.94,0,0,1,88.42,35.46ZM43.2,128A14.17,14.17,0,0,1,36,126.15C26.9,120.93,25.1,106,31,85.07l.79-2.81,2.83.72a142.38,142.38,0,0,0,22.69,3.65l1.41.12.8,1.15a140.9,140.9,0,0,0,14.52,17.79l2,2.1-2,2.09C62.69,121.57,51.73,128,43.2,128ZM36.06,89.47C32,105.59,33,117.53,39,121s17-1.83,28.77-13.24a149.94,149.94,0,0,1-12.3-15.25A149.27,149.27,0,0,1,36.06,89.47Zm35.87,3.77c-4.93,0-10-.22-15.08-.64l-1.41-.12-.81-1.15q-4.31-6.19-8.09-12.72t-7-13.36L39,64l.6-1.27q3.21-6.83,7-13.36c2.48-4.29,5.21-8.57,8.09-12.72l.81-1.16,1.41-.12a178.8,178.8,0,0,1,30.17,0l1.4.12.81,1.16A179.92,179.92,0,0,1,104.31,62.7l.61,1.27-.61,1.28A178.48,178.48,0,0,1,89.23,91.33l-.81,1.15L87,92.6C81.94,93,76.87,93.24,71.93,93.24Zm-13.17-6.5a175.58,175.58,0,0,0,26.35,0A175.27,175.27,0,0,0,98.27,64,171.21,171.21,0,0,0,85.1,41.21a172.84,172.84,0,0,0-26.34,0A171.21,171.21,0,0,0,45.59,64,175.34,175.34,0,0,0,58.76,86.74Z"/></g></g></svg>