<svg xmlns="http://www.w3.org/2000/svg" viewBox="0 0 134.83 128"><defs><style>.cls-1{fill:#fff;}</style></defs><g id="Layer_2" data-name="Layer 2"><g id="Layer_1-2" data-name="Layer 1"><path class="cls-1" d="M93.42,89.39a9.63,9.63,0,0,0-1-19.21h-.34a9.6,9.6,0,0,0-9.27,9.95,10,10,0,0,0,2.75,6.35C79.7,98,70.77,106.38,57.39,113.42a46.36,46.36,0,0,1-28,5.31c-7.72-1-13.72-4.46-17.5-10.12-5.49-8.41-6-17.5-1.37-26.59A40.39,40.39,0,0,1,22.22,68.29c-.69-2.23-1.72-6-2.23-8.75-24.88,18-22.31,42.38-14.76,53.88,5.66,8.57,17.16,13.89,29.86,13.89a42,42,0,0,0,10.29-1.2C67.34,121.82,84,108.78,93.42,89.39Zm30.2-21.27c-13-15.27-32.26-23.68-54.22-23.68H66.66a9.44,9.44,0,0,0-8.41-5.15h-.34a9.61,9.61,0,0,0,.34,19.22h.34A9.65,9.65,0,0,0,67,52.68h3.09a65.35,65.35,0,0,1,36.54,11.15c8.58,5.66,14.76,13,18.19,22,2.92,7.21,2.75,14.24-.34,20.25-4.81,9.09-12.87,14.07-23.51,14.07a43.74,43.74,0,0,1-16.81-3.61c-1.89,1.72-5.32,4.47-7.72,6.18A52.93,52.93,0,0,0,98.57,128c16.47,0,28.65-9.09,33.29-18.19C136.83,99.86,136.49,82.7,123.62,68.12ZM36.46,92.31a9.64,9.64,0,0,0,9.61,9.27h.34a9.61,9.61,0,0,0-.34-19.22h-.35a3,3,0,0,0-1.2.17A62.89,62.89,0,0,1,35.6,44.44a46.09,46.09,0,0,1,10.12-26.6c5-6.34,14.59-9.43,21.11-9.6C85,7.89,92.74,30.54,93.25,39.64c2.23.51,6,1.71,8.58,2.57C99.77,14.41,82.61,0,66.14,0,50.7,0,36.46,11.15,30.8,27.62c-7.9,22-2.75,43.07,6.86,59.72A7.68,7.68,0,0,0,36.46,92.31Z"/></g></g></svg>