<svg xmlns="http://www.w3.org/2000/svg" viewBox="0 0 170.76 128"><defs><style>.cls-1{fill:#fff;}</style></defs><g id="Layer_2" data-name="Layer 2"><g id="Layer_1-2" data-name="Layer 1"><path class="cls-1" d="M147,73.5a35.23,35.23,0,0,0-15.48,3.6c-1.6-3.16-3.2-5.93-3.46-8a22.06,22.06,0,0,1-.3-6.74c.36-2.87,2-6.94,2-7.27s-.37-1.77-3.8-1.8-6.41.67-6.74,1.57a38.09,38.09,0,0,0-1.43,5.1c-.6,3.13-6.88,14.24-10.44,20.08A20.44,20.44,0,0,1,105,74.17a22.06,22.06,0,0,1-.3-6.74c.36-2.87,2-6.94,2-7.27s-.37-1.77-3.8-1.8-6.4.67-6.74,1.57-.7,3-1.43,5.1-9,20.61-11.21,25.45c-1.1,2.47-2.07,4.44-2.77,5.77s0,.1-.1.23l-.93,1.77v0c-.47.84-1,1.64-1.2,1.64s-.5-2.24.06-5.3c1.24-6.44,4.24-16.48,4.21-16.85,0-.17.56-1.93-1.94-2.83a3,3,0,0,0-3.5.6c-.2,0-.37.53-.37.53s2.7-11.31-5.17-11.31c-4.93,0-11.74,5.37-15.11,10.28-2.13,1.16-6.67,3.63-11.47,6.27-1.84,1-3.74,2.06-5.54,3l-.37-.4c-9.54-10.17-27.18-17.38-26.45-31,.27-5,2-18.08,33.89-34,26.12-13,47-9.44,50.67-1.5,5.17,11.34-11.18,32.42-38.33,35.46C48.8,54.06,43.37,50.05,42,48.55s-1.63-1.63-2.17-1.33c-.87.46-.33,1.87,0,2.7.8,2.1,4.14,5.84,9.81,7.7,5,1.64,17.11,2.54,31.79-3.13,16.44-6.37,29.28-24,25.51-38.83-3.83-15-28.78-20-52.37-11.6-14,5-29.25,12.8-40.19,23C1.37,39.25-.7,49.85.17,54.26,3.21,70,24.85,80.21,33.53,87.78c-.44.23-.84.46-1.2.66-4.34,2.14-20.85,10.78-25,19.92-4.67,10.34.74,17.78,4.34,18.78,11.14,3.1,22.55-2.47,28.72-11.64S45.8,94.41,43,89l-.1-.2,3.4-2c2.2-1.3,4.37-2.51,6.27-3.54A41.4,41.4,0,0,0,50.3,94.58c-.46,5.87,1.94,13.48,5.11,16.48a5.64,5.64,0,0,0,4.1,1.33c3.67,0,5.34-3,7.17-6.67C69,101.29,71,96.15,71,96.15s-2.5,13.91,4.34,13.91c2.5,0,5-3.24,6.14-4.91v0l.2-.34c.14-.2.27-.41.4-.63v-.07c1-1.73,3.23-5.7,6.57-12.27C92.9,83.41,97,72.8,97,72.8a61.31,61.31,0,0,0,1.63,6.87c.73,2.54,2.33,5.31,3.57,8-1,1.4-1.6,2.2-1.6,2.2l0,0C99.87,91,99,92.11,98,93.25c-3.41,4.07-7.48,8.7-8,10-.63,1.57-.5,2.73.73,3.67a6.72,6.72,0,0,0,4.21.66,18.67,18.67,0,0,0,6.27-1.43,21.41,21.41,0,0,0,5.4-2.84,12,12,0,0,0,5.17-10.64,21.28,21.28,0,0,0-2-7.5c.3-.43.6-.87.9-1.33a141.22,141.22,0,0,0,9.34-16.18,60.31,60.31,0,0,0,1.64,6.87,47.84,47.84,0,0,0,3,6.87c-4.93,4-8,8.71-9.1,11.78-2,5.67-.44,8.23,2.47,8.83a8.87,8.87,0,0,0,4.57-.93,20.76,20.76,0,0,0,5.77-3c3.33-2.47,6.53-5.9,6.37-10.54a20.24,20.24,0,0,0-1.44-6.24,32.61,32.61,0,0,1,16.55-1.9c14.84,1.74,17.77,11,17.21,14.88s-3.67,6-4.71,6.67-1.36.87-1.26,1.33c.13.71.6.67,1.5.54,1.23-.2,7.8-3.17,8.07-10.31.4-9.17-8.31-19.18-23.75-19.08ZM32.53,112.09c-4.91,5.37-11.81,7.41-14.75,5.67-3.17-1.83-1.93-9.74,4.11-15.44a78.88,78.88,0,0,1,11.57-8.64l3-1.83a2.4,2.4,0,0,1,.33-.2l.77-.47a21.28,21.28,0,0,1-5.07,20.91ZM68.38,87.71c-1.7,4.17-5.3,14.88-7.47,14.28-1.87-.5-3-8.61-.37-16.61a37.16,37.16,0,0,1,5.84-10.71c2.7-3,5.64-4,6.37-2.77C73.62,73.5,69.45,85.11,68.38,87.71ZM98,101.85c-.73.37-1.4.64-1.7.44s.3-.64.3-.64,3.7-4,5.17-5.8c.83-1.07,1.83-2.3,2.9-3.7v.4c0,4.8-4.6,8-6.67,9.3Zm22.81-5.2c-.53-.4-.46-1.63,1.34-5.5a20.48,20.48,0,0,1,5.07-6.54,8.43,8.43,0,0,1,.5,2.87C127.66,93.48,123.39,95.72,120.78,96.65Z"/></g></g></svg>