<svg xmlns="http://www.w3.org/2000/svg" viewBox="0 0 128 128"><defs><style>.cls-1{fill:#fff;}</style></defs><g id="Layer_2" data-name="Layer 2"><g id="Layer_1-2" data-name="Layer 1"><path class="cls-1" d="M120,0H8A8,8,0,0,0,0,8V120a8,8,0,0,0,8,8H120a8,8,0,0,0,8-8V8A8,8,0,0,0,120,0ZM74.45,71.23H58.4V117H45.68V71.23h-16V61H74.45Zm41.47,37.62a14.43,14.43,0,0,1-4.83,5.17,21,21,0,0,1-7.1,2.83,40.64,40.64,0,0,1-8.55.86,47.57,47.57,0,0,1-8.78-.78,26.17,26.17,0,0,1-7.22-2.35V102.07a24.08,24.08,0,0,0,7.39,4.28,23.83,23.83,0,0,0,8.06,1.43,17.76,17.76,0,0,0,4.17-.43,10,10,0,0,0,3-1.19,5.18,5.18,0,0,0,1.78-1.8,4.5,4.5,0,0,0,.59-2.25,4.81,4.81,0,0,0-.94-2.93,10,10,0,0,0-2.56-2.39A26.78,26.78,0,0,0,97,94.68C95.56,94,94,93.31,92.23,92.6q-6.57-2.73-9.8-6.68a14.64,14.64,0,0,1-3.23-9.55A15.18,15.18,0,0,1,81,68.85a15,15,0,0,1,4.8-5.19,21.62,21.62,0,0,1,7-3,36,36,0,0,1,8.45-1,51.18,51.18,0,0,1,7.77.53,30.63,30.63,0,0,1,6.24,1.62v11.7a19,19,0,0,0-3.07-1.72,23,23,0,0,0-3.43-1.23,25.32,25.32,0,0,0-6.81-1,16.94,16.94,0,0,0-3.91.41,10.12,10.12,0,0,0-3,1.15A5.76,5.76,0,0,0,93.17,73a4.25,4.25,0,0,0-.66,2.33,4.39,4.39,0,0,0,.74,2.52A8.43,8.43,0,0,0,95.36,80a21.71,21.71,0,0,0,3.33,2c1.3.64,2.78,1.3,4.42,2a48.56,48.56,0,0,1,6,3,21.25,21.25,0,0,1,4.6,3.57A14,14,0,0,1,116.69,95a16.28,16.28,0,0,1,1,6A15.92,15.92,0,0,1,115.92,108.85Z"/></g></g></svg>