<svg xmlns="http://www.w3.org/2000/svg" viewBox="0 0 105.67 128"><defs><style>.cls-1{fill:#fff;}</style></defs><g id="Layer_2" data-name="Layer 2"><g id="Layer_1-2" data-name="Layer 1"><path class="cls-1" d="M38.06,50.46l4,2.58q1.95-3.36,3.88-6.72l-5.11-2c-.17-.07-.2-.14-.27,0l-.4,1c-.45,1.09-.9,2.19-1.36,3.29C38.56,49.24,38.31,49.85,38.06,50.46Z"/><path class="cls-1" d="M50.76,58.66q2.77,1.79,5.54,3.58L54,53.12Z"/><path class="cls-1" d="M103.63,79.23,102,76.36l-4.4-7.62L91.3,57.85,84,45.2,76.54,32.26,69.78,20.53q-2.61-4.52-5.21-9l-2.8-4.86a20.72,20.72,0,0,0-1.86-2.78C58,1.49,55.13-.33,52,.05c-3.88.47-6.4,3.7-8.22,6.86l-3.1,5.36-5.41,9.39L28.35,33.59l-7.48,13L13.64,59.11,7.52,69.72,3.37,76.91A38.13,38.13,0,0,0,1,81.27C-.08,83.88-.5,87,.82,89.57s3.93,3.47,6.64,4c1.86.37,3.77-.19,5.66-.19H94c3.24,0,6.67.14,9.19-2.14a7.12,7.12,0,0,0,2.47-5.06A12.43,12.43,0,0,0,103.63,79.23Zm-52.4-44a5.8,5.8,0,1,1,4.41,6,5.85,5.85,0,0,1-4.41-6ZM79.59,79.93a11.46,11.46,0,0,1-4.2,1,16.12,16.12,0,0,1-10.06-3l2.94-4.24-4.71-3-1-.68-.23-.14,0,0a2.93,2.93,0,0,1-.87.32,3.14,3.14,0,0,1-3.68-2.38c-.06-.26-.13-.51-.2-.77,0-.07,0-.25-.08-.3l-.51-.32-2.5-1.61-5.07-3.28-.14-.09c-.43.76-.87,1.52-1.31,2.27,0,.06.18.28.22.34l.69,1,3.83,5.3a3.56,3.56,0,0,1,.84,2.63,5.58,5.58,0,0,1-.75,1.84l-3.18,6c-.4.77-.81,1.54-1.22,2.3a3.38,3.38,0,0,1-2.39,1.94,3.14,3.14,0,0,1-3.63-3,4.7,4.7,0,0,1,.79-2.29l3.14-5.91.45-.84c.07-.13.09-.12,0-.23l-1.49-2.07-2.1-2.91-.71-1c0-.07-.1-.15-.16-.22a2.35,2.35,0,0,0-.59-.19L40,69.1,33.14,81l-1,1.81a4.65,4.65,0,0,1-.93,1.29,3.14,3.14,0,0,1-4.8-.87,3.2,3.2,0,0,1,.11-3.1l5.17-9L38,60.24c.54-.94,1-1.89,1.6-2.84.27-.47.54-.95.82-1.42.14-.24.17-.22,0-.36l-2.7-1.74-1.18-.77L36.22,53a4.32,4.32,0,0,0-.5.2,2.85,2.85,0,0,1-.92.14,3.12,3.12,0,0,1-3.06-3.57A7.68,7.68,0,0,1,32.36,48c.4-1,.8-2,1.21-3l2.34-5.71a3.29,3.29,0,0,1,2.18-2.1,3.52,3.52,0,0,1,2.26.22L51.86,42l4.54,1.78a3.35,3.35,0,0,1,1.94,1.7,6.38,6.38,0,0,1,.35,1.15q1.56,6,3.11,12.09l1.53,5.94c.12.49.25,1,.38,1.47,0,.15.07.3.1.45s-.05.49.09.58l.29.18,4.35,2.81,1.44.93c.12.08.16-.11.22-.21L71,69.65l1.63-2.35A16.18,16.18,0,0,1,79,75.24a11.4,11.4,0,0,1,.65,4.63A.15.15,0,0,1,79.59,79.93Z"/><path class="cls-1" d="M15.36,100.45H22l4.39,17.66h.08l5.76-17.66h5.64l5.73,18.13h.07l4.63-18.13h6.15l-8,27.55H41L34.9,108.93h-.08L28.75,128H23.53Z"/><path class="cls-1" d="M57.08,100.45h6.07V128H57.08Z"/><path class="cls-1" d="M68.68,100.45H78.91a20.17,20.17,0,0,1,4,.39,9,9,0,0,1,3.33,1.34,6.7,6.7,0,0,1,2.25,2.57,8.73,8.73,0,0,1,.84,4.06,9.37,9.37,0,0,1-.78,4,6.65,6.65,0,0,1-2.14,2.61,8.59,8.59,0,0,1-3.23,1.38,19,19,0,0,1-4,.41H74.75V128H68.68Zm6.07,11.67h4a8,8,0,0,0,1.57-.15,4.2,4.2,0,0,0,1.36-.53,2.79,2.79,0,0,0,1-1,3.29,3.29,0,0,0,.37-1.62,2.76,2.76,0,0,0-.49-1.69,3.17,3.17,0,0,0-1.24-1,5.39,5.39,0,0,0-1.7-.45c-.62-.06-1.22-.1-1.79-.1H74.75Z"/></g></g></svg>